<svg width="24" height="24" viewBox="0 0 24 24" fill="none" xmlns="http://www.w3.org/2000/svg">
<path d="M20 1C20.5523 1 21 1.44772 21 2V22C21 22.5523 20.5523 23 20 23H6.5C4.567 23 3 21.433 3 19.5V4.5C3 2.567 4.567 1 6.5 1H20ZM6.5 18C5.67157 18 5 18.6716 5 19.5C5 20.3284 5.67157 21 6.5 21H19V18H6.5ZM6.5 3C5.67157 3 5 3.67157 5 4.5V16.3359C5.45454 16.1201 5.96334 16 6.5 16H19V3H6.5Z" fill="black"/>
<mask id="mask0_26846_1542" style="mask-type:luminance" maskUnits="userSpaceOnUse" x="3" y="1" width="18" height="22">
<path d="M20 1C20.5523 1 21 1.44772 21 2V22C21 22.5523 20.5523 23 20 23H6.5C4.567 23 3 21.433 3 19.5V4.5C3 2.567 4.567 1 6.5 1H20ZM6.5 18C5.67157 18 5 18.6716 5 19.5C5 20.3284 5.67157 21 6.5 21H19V18H6.5ZM6.5 3C5.67157 3 5 3.67157 5 4.5V16.3359C5.45454 16.1201 5.96334 16 6.5 16H19V3H6.5Z" fill="white"/>
</mask>
<g mask="url(#mask0_26846_1542)">
<rect width="24" height="24" fill="#121212"/>
</g>
</svg>
