<svg width="24" height="24" viewBox="0 0 24 24" fill="none" xmlns="http://www.w3.org/2000/svg">
<path d="M12 0C17.5228 0 22 4.47715 22 10C22 13.3716 20.1972 16.6758 17.2256 19.8125C16.2067 20.888 15.1183 21.8682 14.0293 22.7354C13.6477 23.0392 13.2925 23.308 12.9727 23.5391C12.7777 23.6799 12.6351 23.7784 12.5547 23.832C12.2188 24.056 11.7812 24.056 11.4453 23.832C11.3649 23.7784 11.2223 23.6799 11.0273 23.5391C10.7075 23.308 10.3523 23.0392 9.9707 22.7354C8.88168 21.8682 7.79332 20.888 6.77441 19.8125C3.80277 16.6758 2 13.3716 2 10C2 4.47715 6.47715 0 12 0ZM12 2C7.58172 2 4 5.58172 4 10C4 12.7534 5.57226 15.6368 8.22559 18.4375C9.17539 19.4401 10.1965 20.3584 11.2168 21.1709C11.4952 21.3926 11.7577 21.5935 12 21.7725C12.2423 21.5935 12.5048 21.3926 12.7832 21.1709C13.8035 20.3584 14.8246 19.4401 15.7744 18.4375C18.4277 15.6368 20 12.7534 20 10C20 5.58172 16.4183 2 12 2ZM12 6C14.2091 6 16 7.79086 16 10C16 12.2091 14.2091 14 12 14C9.79086 14 8 12.2091 8 10C8 7.79086 9.79086 6 12 6ZM12 8C10.8954 8 10 8.89543 10 10C10 11.1046 10.8954 12 12 12C13.1046 12 14 11.1046 14 10C14 8.89543 13.1046 8 12 8Z" fill="black"/>
<mask id="mask0_26846_1526" style="mask-type:luminance" maskUnits="userSpaceOnUse" x="2" y="0" width="20" height="24">
<path d="M12 0C17.5228 0 22 4.47715 22 10C22 13.3716 20.1972 16.6758 17.2256 19.8125C16.2067 20.888 15.1183 21.8682 14.0293 22.7354C13.6477 23.0392 13.2925 23.308 12.9727 23.5391C12.7777 23.6799 12.6351 23.7784 12.5547 23.832C12.2188 24.056 11.7812 24.056 11.4453 23.832C11.3649 23.7784 11.2223 23.6799 11.0273 23.5391C10.7075 23.308 10.3523 23.0392 9.9707 22.7354C8.88168 21.8682 7.79332 20.888 6.77441 19.8125C3.80277 16.6758 2 13.3716 2 10C2 4.47715 6.47715 0 12 0ZM12 2C7.58172 2 4 5.58172 4 10C4 12.7534 5.57226 15.6368 8.22559 18.4375C9.17539 19.4401 10.1965 20.3584 11.2168 21.1709C11.4952 21.3926 11.7577 21.5935 12 21.7725C12.2423 21.5935 12.5048 21.3926 12.7832 21.1709C13.8035 20.3584 14.8246 19.4401 15.7744 18.4375C18.4277 15.6368 20 12.7534 20 10C20 5.58172 16.4183 2 12 2ZM12 6C14.2091 6 16 7.79086 16 10C16 12.2091 14.2091 14 12 14C9.79086 14 8 12.2091 8 10C8 7.79086 9.79086 6 12 6ZM12 8C10.8954 8 10 8.89543 10 10C10 11.1046 10.8954 12 12 12C13.1046 12 14 11.1046 14 10C14 8.89543 13.1046 8 12 8Z" fill="white"/>
</mask>
<g mask="url(#mask0_26846_1526)">
<rect width="24" height="24" fill="#121212"/>
</g>
</svg>
