<?xml version="1.0" encoding="UTF-8"?><svg id="Layer_1" xmlns="http://www.w3.org/2000/svg" viewBox="0 0 403.11 150.7"><defs><style>.cls-1{fill:#231f20;}</style></defs><path id="Logo" class="cls-1" d="M108.55,56.62h-9.77V17.53h9.77V56.62ZM25.49,17.53H15.72V56.62h9.77V17.53Zm19.54,19.54H25.49l19.54,19.54v-19.54Zm39.09-9.77c0-5.4-4.38-9.77-9.77-9.77v19.54c5.4,0,9.77-4.38,9.77-9.77ZM15.72,66.39c0,5.4,4.38,9.77,9.77,9.77v-19.54c-5.4,0-9.77,4.38-9.77,9.77Zm19.54,19.54c0-5.4-4.38-9.77-9.77-9.77v19.54c5.4,0,9.77-4.38,9.77-9.77Zm48.86,9.77V56.62h9.77L54.81,17.53V56.62h-19.54v9.77h19.54v29.32h9.77V56.62h9.77v39.09h9.77Zm19.54-19.54l-19.54,19.54h39.09l-19.54-19.54Zm-19.54,58.63h39.09l-19.54-19.54-19.54,19.54Zm-9.77,0v-39.09h-9.77v39.09h9.77ZM15.72,95.71l39.09,39.09v-39.09H15.72Z"/><g><path class="cls-1" d="M144.31,56.75h7.23v17.62l14.9-17.68h7.78l-16.1,18.6,16.92,20.34h-8.54l-14.96-18.17v18.17h-7.23V56.75Z"/><path class="cls-1" d="M180.42,67.2h6.58v5.33c1.79-3.59,4.46-5.71,9.25-5.77v6.15c-5.77,.05-9.25,1.9-9.25,7.94v14.79h-6.58v-28.45Z"/><path class="cls-1" d="M201.3,58.76c0-2.18,1.74-3.81,3.92-3.81s3.92,1.63,3.92,3.81-1.74,3.75-3.92,3.75-3.92-1.63-3.92-3.75Zm.71,8.43h6.58v28.45h-6.58v-28.45Z"/><path class="cls-1" d="M215.02,86.78h6.2c.33,2.88,1.79,4.57,5.66,4.57,3.54,0,5.11-1.25,5.11-3.65s-1.9-3.21-6.09-3.92c-7.5-1.2-10.28-3.32-10.28-8.65,0-5.71,5.33-8.54,10.66-8.54,5.82,0,10.44,2.18,11.15,8.59h-6.09c-.54-2.61-2.01-3.81-5.06-3.81-2.83,0-4.52,1.36-4.52,3.37s1.36,2.88,5.88,3.64c6.69,1.03,10.66,2.67,10.66,8.7s-4.08,9.08-11.37,9.08-11.64-3.37-11.91-9.41Z"/><path class="cls-1" d="M245.8,87.7v-15.56h-3.81v-4.95h3.81v-6.26h6.58v6.26h6.26v4.95h-6.26v14.96c0,2.5,1.2,3.64,3.26,3.64,1.31,0,2.28-.16,3.21-.54v5.22c-1.03,.38-2.45,.71-4.46,.71-5.66,0-8.59-3.05-8.59-8.43Z"/><path class="cls-1" d="M264.08,58.76c0-2.18,1.74-3.81,3.92-3.81s3.92,1.63,3.92,3.81-1.74,3.75-3.92,3.75-3.92-1.63-3.92-3.75Zm.71,8.43h6.58v28.45h-6.58v-28.45Z"/><path class="cls-1" d="M277.74,87.76c0-6.64,6.42-9.03,14.58-9.03h3.54v-1.47c0-3.81-1.31-5.71-5.17-5.71-3.43,0-5.11,1.63-5.44,4.46h-6.36c.54-6.64,5.82-9.41,12.18-9.41s11.37,2.61,11.37,10.39v18.66h-6.47v-3.48c-1.85,2.45-4.35,4.03-8.7,4.03-5.22,0-9.52-2.5-9.52-8.43Zm18.11-2.07v-2.83h-3.37c-5,0-8.21,1.14-8.21,4.62,0,2.39,1.3,3.97,4.57,3.97,4.03,0,7.02-2.12,7.02-5.77Z"/><path class="cls-1" d="M310.47,67.2h6.58v4.51c1.36-2.77,4.52-5.11,9.19-5.11,5.71,0,9.74,3.32,9.74,11.15v17.9h-6.58v-17.3c0-4.3-1.74-6.26-5.66-6.26-3.7,0-6.69,2.29-6.69,6.8v16.75h-6.58v-28.45Z"/><path class="cls-1" d="M343.31,58.76c0-2.18,1.74-3.81,3.92-3.81s3.92,1.63,3.92,3.81-1.74,3.75-3.92,3.75-3.92-1.63-3.92-3.75Zm.71,8.43h6.58v28.45h-6.58v-28.45Z"/><path class="cls-1" d="M356.97,87.76c0-6.64,6.42-9.03,14.58-9.03h3.53v-1.47c0-3.81-1.3-5.71-5.17-5.71-3.43,0-5.11,1.63-5.44,4.46h-6.36c.54-6.64,5.82-9.41,12.18-9.41s11.37,2.61,11.37,10.39v18.66h-6.47v-3.48c-1.85,2.45-4.35,4.03-8.7,4.03-5.22,0-9.52-2.5-9.52-8.43Zm18.11-2.07v-2.83h-3.37c-5.01,0-8.21,1.14-8.21,4.62,0,2.39,1.31,3.97,4.57,3.97,4.02,0,7.02-2.12,7.02-5.77Z"/></g></svg>